<svg xmlns="http://www.w3.org/2000/svg" xmlns:xlink="http://www.w3.org/1999/xlink" width="80" height="80" viewBox="0 0 80 80">
  <defs>
    <clipPath id="clip-Icon_11">
      <rect width="80" height="80"/>
    </clipPath>
  </defs>
  <g id="Icon_11" data-name="Icon – 11" clip-path="url(#clip-Icon_11)">
    <g id="Group_1032" data-name="Group 1032" transform="translate(-215.248 -178.938)">
      <path id="Path_59" data-name="Path 59" d="M257.813,199.96a5.287,5.287,0,0,1,3.036.9,8.148,8.148,0,0,1,2.367,3.1l.012.028,1.131,2.669h13.2a5.943,5.943,0,0,1,4.327,1.643,6.868,6.868,0,0,1,1.307,4.553v25.756a5.438,5.438,0,0,1-1.383,3.7,6.734,6.734,0,0,1-3.666,1.6,2,2,0,0,1-.236.014H229.9q-.086,0-.172-.007a7.19,7.19,0,0,1-4.344-1.983,7.981,7.981,0,0,1-1.679-4.543q0-.054,0-.107V212.916a8.52,8.52,0,0,1,.146-1.626,5.484,5.484,0,0,1,1.607-3.141,7.5,7.5,0,0,1,4.782-1.5h0l.157,0h11.813l1-2.751a6.024,6.024,0,0,1,2.426-3.13,6.994,6.994,0,0,1,3.46-.8c.192,0,.343.006.434.011h7.793C257.437,199.971,257.608,199.96,257.813,199.96Zm1.741,5.608a4.451,4.451,0,0,0-1-1.436,1.389,1.389,0,0,0-.737-.172c-.06,0-.1,0-.127,0a1.373,1.373,0,0,1-.265.017h-7.957c-.055,0-.092,0-.147-.005-.02,0-.1-.006-.227-.006a3.266,3.266,0,0,0-1.427.247,2.177,2.177,0,0,0-.67.967c-.008.027-.008.025-.02.057l-1.485,4.095a2,2,0,0,1-1.88,1.318H230.237a3.951,3.951,0,0,0-2.091.456,3.022,3.022,0,0,0-.444,1.73c0,.025,0,.03,0,.057v24.311a4.208,4.208,0,0,0,.648,2.035,3.251,3.251,0,0,0,1.655.673h47.759a3.061,3.061,0,0,0,1.211-.433,1.745,1.745,0,0,0,.216-.843c0-.011,0,0,0-.021V212.8c0-.044,0-.07,0-.113a3.572,3.572,0,0,0-.3-1.726,2.617,2.617,0,0,0-1.342-.305H263.034a2,2,0,0,1-1.841-1.22Z" transform="translate(1.798 -3)"/>
      <path id="Ellipse_39" data-name="Ellipse 39" d="M11.4,4a7.4,7.4,0,1,0,7.4,7.4A7.41,7.41,0,0,0,11.4,4m0-4A11.4,11.4,0,1,1,0,11.4,11.4,11.4,0,0,1,11.4,0Z" transform="translate(243.178 210.475)"/>
    </g>
  </g>
</svg>
